<svg width="68" height="68" viewBox="0 0 68 68" fill="none" xmlns="http://www.w3.org/2000/svg">
<g clip-path="url(#clip0_338_3341)">
<path d="M3.88138 21.299L3.88299 21.2958H3.88461L3.88622 21.2926C5.11328 20.0607 7.67557 19.4294 9.61788 19.3357C10.212 19.3067 10.7561 19.3244 11.1921 19.3906C11.7426 19.4714 12.185 19.6441 12.4514 19.9073C12.6096 20.0639 12.713 20.2464 12.7549 20.4562L17.8747 33.3533C17.9086 33.4388 17.9263 33.5276 17.9296 33.6148V33.6261V33.6681C17.8811 35.0437 14.4357 38.5085 13.3895 39.5596L13.3798 39.5693C13.1053 39.8502 14.7312 41.9653 16.9722 44.5373C18.0119 45.7288 19.197 46.9898 20.4224 48.2104C21.6447 49.4293 22.9008 50.6015 24.081 51.6219C26.5287 53.7353 28.5017 55.2417 28.7551 54.9915C29.2508 54.4877 30.3503 53.3882 31.4627 52.4066C32.6801 51.3313 33.9524 50.4013 34.6822 50.4287C34.7871 50.4336 34.8856 50.4562 34.9744 50.4966L47.823 55.6034C48.0312 55.6454 48.2137 55.7455 48.3687 55.9021C48.6319 56.1652 48.8046 56.6125 48.8886 57.1711C48.9532 57.6119 48.9709 58.1624 48.9419 58.7631C48.845 60.7118 48.2153 63.2725 46.9834 64.5044C46.9673 64.5205 46.9511 64.5351 46.935 64.5496C41.2437 70.2344 32.1538 68.3502 23.4998 62.8479C20.1189 60.6973 16.7978 57.9897 13.777 54.9705C10.7561 51.9513 8.03723 48.6204 5.8592 45.2218C0.18083 36.3676 -1.84382 27.0129 3.88138 21.299ZM9.69053 20.8857C8.04046 20.9664 5.91087 21.4557 4.9825 22.3937L4.97927 22.3969C-0.125934 27.4876 1.86642 36.1174 7.16537 44.3823C9.28689 47.6905 11.9331 50.9309 14.8716 53.8694C17.8101 56.8062 21.0424 59.4412 24.3329 61.5336C32.3992 66.663 40.7771 68.5149 45.8484 63.4404C45.8597 63.4275 45.871 63.4146 45.8823 63.4033C46.8203 62.4652 47.3095 60.3405 47.3903 58.6904C47.4161 58.1947 47.4016 57.7475 47.3483 57.3971C47.3257 57.2405 47.3047 57.1243 47.2886 57.0597L34.5449 51.9949C34.2123 52.1046 33.3728 52.7892 32.4912 53.5674C31.4224 54.5103 30.3406 55.5937 29.8563 56.0861L29.8498 56.0926C28.8778 57.0581 26.1315 55.4435 23.0655 52.7957C21.8562 51.7511 20.5726 50.5515 19.3278 49.3115C18.083 48.0715 16.872 46.7831 15.8048 45.5593C13.0682 42.419 11.3358 39.5628 12.2351 38.5231C12.2464 38.5085 12.2593 38.494 12.2738 38.4811V38.4795L12.277 38.4778L12.29 38.4649C13.2022 37.5479 16.152 34.5803 16.3667 33.7553L11.297 20.9874C11.2324 20.9713 11.1194 20.9519 10.966 20.9293C10.6189 20.8776 10.1781 20.8615 9.69053 20.8857Z" fill="white" stroke="white" stroke-width="0.3"/>
<path d="M36.7698 33.8167C37.887 35.4587 38.4957 36.9231 38.4812 38.2616C38.4747 39.0285 38.2729 39.7373 37.858 40.3912C39.5613 40.0828 40.8966 39.4015 41.9331 38.591C43.3587 37.4769 44.2354 36.1159 44.7279 35.1455C44.8667 34.871 45.1444 34.7128 45.4318 34.7144C51.1909 34.5078 56.3591 32.5639 60.0774 29.5398C63.7247 26.5739 65.9657 22.5666 65.9657 18.1556C65.9657 13.6107 63.5891 9.48548 59.748 6.48888C55.8505 3.44868 50.4531 1.56773 44.4825 1.56773C38.5119 1.56773 33.1193 3.44706 29.2266 6.48565C25.3888 9.48225 23.0154 13.609 23.0154 18.1556C23.0154 21.5462 24.3345 24.6945 26.5933 27.3133C28.9553 30.0484 32.3427 32.2087 36.3338 33.4728C36.5243 33.5326 36.6745 33.6585 36.7698 33.8167ZM36.9199 38.2487C36.9296 37.3009 36.463 36.1869 35.6008 34.884C31.4482 33.5213 27.9091 31.2302 25.4114 28.3354C22.9072 25.4356 21.4477 21.9353 21.4477 18.1556C21.4477 13.1037 24.052 8.5442 28.2659 5.25536C32.425 2.00689 38.1583 0 44.4825 0C50.8067 0 56.5464 2.0085 60.7103 5.25697C64.9259 8.54581 67.535 13.1053 67.535 18.1556C67.535 23.0606 65.0712 27.4942 61.0639 30.7523C57.1857 33.9072 51.848 35.9609 45.9081 36.2579C45.314 37.3268 44.3549 38.6814 42.8954 39.8229C41.234 41.1194 38.9397 42.1365 35.8236 42.1365V42.1317C35.5782 42.1317 35.3377 42.017 35.1859 41.8023C34.9372 41.4503 35.0212 40.9627 35.3732 40.7141C36.4242 39.9714 36.9102 39.1609 36.9199 38.2487Z" fill="#ED2A28" stroke="#ED2A28" stroke-width="0.3"/>
<path d="M27.8365 21.9368C27.9075 22.1402 27.8025 22.3614 27.5991 22.4325C27.3973 22.5051 27.1745 22.3986 27.1034 22.1951C26.8677 21.5299 26.695 20.8599 26.5836 20.1915C26.1024 17.2966 26.7531 14.4404 28.1981 12.0703C29.6431 9.70335 31.8793 7.82079 34.5691 6.86659C35.2149 6.63732 35.8866 6.46134 36.5809 6.3467C36.7924 6.31118 36.9926 6.45488 37.0281 6.66638C37.0636 6.87789 36.9199 7.07809 36.7084 7.11361C36.061 7.22179 35.4313 7.38486 34.8275 7.59959C32.3104 8.49244 30.2147 10.2571 28.8617 12.4755C27.5103 14.6923 26.9 17.3612 27.3505 20.0639C27.4554 20.6871 27.6153 21.3136 27.8365 21.9368Z" fill="#ED2A28"/>
<path d="M14.1822 19.4423C14.0724 19.1791 14.1984 18.8756 14.4615 18.7658C14.7263 18.656 15.0298 18.7819 15.138 19.0451L20.5516 32.0551C20.6614 32.3183 20.5355 32.6218 20.2707 32.7316C20.0075 32.8414 19.704 32.7171 19.5942 32.4523L14.1822 19.4423Z" fill="white"/>
<path d="M36.0109 48.8141C35.7478 48.7043 35.625 48.4007 35.7348 48.1376C35.8462 47.8744 36.1498 47.7517 36.4129 47.8615L49.0613 53.2202C49.3245 53.3316 49.4472 53.6335 49.3374 53.8967C49.226 54.1598 48.9225 54.2842 48.6609 54.1728L36.0109 48.8141Z" fill="white"/>
<path d="M35.3861 13.8804C36.5276 13.8804 37.5609 14.3421 38.3084 15.0913C39.0576 15.8388 39.5193 16.8721 39.5193 18.0136C39.5193 19.1551 39.0576 20.1884 38.3084 20.9376C37.5609 21.6851 36.5276 22.1485 35.3861 22.1485C34.2446 22.1485 33.2113 21.6851 32.4621 20.9376C31.7146 20.1884 31.2512 19.1551 31.2512 18.0136C31.2512 16.8721 31.7146 15.8388 32.4621 15.0913C33.2113 14.3421 34.2446 13.8804 35.3861 13.8804ZM37.5754 15.8243C37.0152 15.264 36.2418 14.9169 35.3861 14.9169C34.5304 14.9169 33.757 15.264 33.1968 15.8243C32.6365 16.3845 32.2894 17.1579 32.2894 18.0136C32.2894 18.8693 32.6365 19.6427 33.1968 20.2029C33.757 20.7632 34.5304 21.1103 35.3861 21.1103C36.2418 21.1103 37.0152 20.7632 37.5754 20.2029C38.1357 19.6427 38.4828 18.8693 38.4828 18.0136C38.4828 17.1579 38.1357 16.3845 37.5754 15.8243ZM55.4582 13.8804C56.5997 13.8804 57.633 14.3421 58.3821 15.0913C59.1297 15.8388 59.5914 16.8721 59.5914 18.0136C59.5914 19.1551 59.1297 20.1884 58.3821 20.9376C57.633 21.6851 56.5997 22.1485 55.4582 22.1485C54.3167 22.1485 53.2834 21.6851 52.5358 20.9376C51.7867 20.1884 51.3249 19.1551 51.3249 18.0136C51.3249 16.8721 51.7867 15.8388 52.5358 15.0913C53.2834 14.3421 54.3167 13.8804 55.4582 13.8804ZM57.6475 15.8243C57.0873 15.264 56.3139 14.9169 55.4582 14.9169C54.6025 14.9169 53.8291 15.264 53.2688 15.8243C52.7086 16.3845 52.3615 17.1579 52.3615 18.0136C52.3615 18.8693 52.7086 19.6427 53.2688 20.2029C53.8291 20.7632 54.6025 21.1103 55.4582 21.1103C56.3139 21.1103 57.0873 20.7632 57.6475 20.2029C58.2078 19.6427 58.5549 18.8693 58.5549 18.0136C58.5549 17.1579 58.2078 16.3845 57.6475 15.8243ZM45.4221 13.8804C46.5636 13.8804 47.5969 14.3421 48.3445 15.0913C49.0936 15.8388 49.5554 16.8721 49.5554 18.0136C49.5554 19.1551 49.0936 20.1884 48.3445 20.9376C47.5969 21.6851 46.5636 22.1485 45.4221 22.1485C44.2806 22.1485 43.2473 21.6851 42.4982 20.9376C41.7506 20.1884 41.2873 19.1551 41.2873 18.0136C41.2873 16.8721 41.7506 15.8388 42.4982 15.0913C43.2473 14.3421 44.2806 13.8804 45.4221 13.8804ZM47.6115 15.8243C47.0512 15.264 46.2778 14.9169 45.4221 14.9169C44.5664 14.9169 43.7931 15.264 43.2328 15.8243C42.6726 16.3845 42.3254 17.1579 42.3254 18.0136C42.3254 18.8693 42.6726 19.6427 43.2328 20.2029C43.7931 20.7632 44.5664 21.1103 45.4221 21.1103C46.2778 21.1103 47.0512 20.7632 47.6115 20.2029C48.1717 19.6427 48.5188 18.8693 48.5188 18.0136C48.5188 17.1579 48.1717 16.3845 47.6115 15.8243Z" fill="#ED2A28"/>
</g>
<defs>
<clipPath id="clip0_338_3341">
<rect width="68" height="68" fill="white"/>
</clipPath>
</defs>
</svg>
