<svg width="68" height="68" viewBox="0 0 68 68" fill="none" xmlns="http://www.w3.org/2000/svg">
<path d="M39.9389 17.6858H43.5465V9.22461H39.167C33.3987 9.22461 28.7059 13.9174 28.7059 19.6857V23.046H24.4531V31.5075H28.7059V49.5816H37.1674V31.5075H43.5465V23.046H37.1674V20.4575C37.1674 18.9292 38.4108 17.6858 39.9389 17.6858ZM41.4644 25.1283V29.4251H35.0853V47.4992H30.7885V29.4251H26.5358V25.1283H30.7885V19.6857C30.7885 15.0656 34.5473 11.307 39.1673 11.307H41.4644V15.6037H39.9392C37.2627 15.6037 35.0853 17.7812 35.0853 20.4576V25.1285H41.4644V25.1283Z" fill="#ED2A28"/>
<path d="M0 1.78223V57.024H28.3012L31.5476 64.5987C31.9756 65.5974 32.9158 66.2178 34.0017 66.2178H34.0018C35.0853 66.2178 36.0236 65.5989 36.4509 64.6027L39.6988 57.0242H68V1.78223H0ZM65.9175 54.9417H38.3255L34.5366 63.7823C34.4 64.1009 34.1171 64.1353 34.0015 64.1353C33.8851 64.1353 33.5994 64.1007 33.4613 63.7785L29.6741 54.9417H2.08236V3.86459H65.9175V54.9417Z" fill="white"/>
<path d="M61.654 40.0596V50.6102H57.4891V52.6925H63.7364V40.0596H61.654Z" fill="white"/>
<path d="M63.7358 25.2051H61.6534V37.977H63.7358V25.2051Z" fill="white"/>
<path d="M63.7358 19.791H61.6534V23.1229H63.7358V19.791Z" fill="white"/>
</svg>
