<svg width="42" height="42" viewBox="0 0 42 42" fill="none" xmlns="http://www.w3.org/2000/svg">
<g clip-path="url(#clip0_338_3388)">
<path d="M16.378 38.6296C16.378 38.9919 16.0903 39.2888 15.728 39.2888C15.3658 39.2888 15.0688 38.9919 15.0688 38.6296V30.374C15.0688 29.8172 15.31 29.3155 15.7001 28.9536C16.0811 28.6008 16.592 28.3872 17.1583 28.3872H24.8378C25.4041 28.3872 25.9242 28.6005 26.2953 28.9536C26.6851 29.3158 26.9273 29.8172 26.9273 30.374V38.6296C26.9273 38.9919 26.6392 39.2888 26.2769 39.2888C25.9147 39.2888 25.6177 38.9919 25.6177 38.6296V30.374C25.6177 30.1978 25.5432 30.0305 25.4133 29.91C25.265 29.7801 25.0697 29.6964 24.8378 29.6964H21.6523V38.63C21.6523 38.9922 21.3649 39.2892 21.0026 39.2892C20.6407 39.2892 20.3434 38.9922 20.3434 38.63V29.6961H17.1583C16.9355 29.6961 16.7403 29.7801 16.592 29.9097C16.462 30.0301 16.3784 30.1975 16.3784 30.3737L16.378 38.6296Z" fill="#768286"/>
<path d="M14.5304 19.5837H18.8203C19.1825 19.5837 19.4703 19.8718 19.4703 20.2337V24.227C19.4703 24.5892 19.1825 24.8763 18.8203 24.8763H14.5304C14.1681 24.8763 13.8803 24.5889 13.8803 24.227V20.2337C13.88 19.8718 14.1681 19.5837 14.5304 19.5837ZM14.5304 11.644H18.8203C19.1825 11.644 19.4703 11.9321 19.4703 12.2941V16.287C19.4703 16.6493 19.1825 16.937 18.8203 16.937H14.5304C14.1681 16.937 13.8803 16.6489 13.8803 16.287V12.2944C13.88 11.9321 14.1681 11.644 14.5304 11.644ZM18.1611 12.9539H15.1896V15.6278H18.1611V12.9539ZM25.3296 15.6278C25.6919 15.6278 25.9793 15.9251 25.9793 16.2873C25.9793 16.6496 25.6915 16.9374 25.3296 16.9374H23.1847C22.8224 16.9374 22.5251 16.6493 22.5251 16.2873V12.2944C22.5251 11.9321 22.8221 11.6444 23.1847 11.6444C23.5469 11.6444 23.8347 11.9325 23.8347 12.2944V15.6278H25.3296ZM23.1847 19.5837H27.4654C27.8276 19.5837 28.1246 19.8718 28.1246 20.2337V24.227C28.1246 24.5892 27.8276 24.8763 27.4654 24.8763H23.1847C22.8224 24.8763 22.5251 24.5889 22.5251 24.227V20.2337C22.5251 19.8718 22.8224 19.5837 23.1847 19.5837ZM26.8157 20.8932H23.835V23.5674H26.8157V20.8932ZM18.1611 20.8932H15.1896V23.5674H18.1611V20.8932Z" fill="#768286"/>
<path d="M32.0339 20.1134C31.8485 20.4199 31.4495 20.5311 31.1427 20.3454C31.0403 20.2804 30.957 20.1971 30.9012 20.1042L25.2738 10.5673C24.9857 10.0751 24.7446 9.44377 24.5962 8.88661C24.4473 8.31075 24.3731 7.71685 24.3731 7.10358C24.3731 5.14402 25.1626 3.37083 26.4531 2.07966C27.7348 0.798656 29.5083 0 31.477 0C33.4363 0 35.2098 0.798656 36.5006 2.07998C37.7819 3.37116 38.5809 5.14434 38.5809 7.10391C38.5809 7.71685 38.4973 8.31108 38.3489 8.88694C38.2 9.4815 37.9677 10.0383 37.6802 10.5584L32.0339 20.1134ZM31.477 18.4974L36.5469 9.90774C36.7792 9.49003 36.9649 9.03492 37.0857 8.56144C37.2061 8.09681 37.2711 7.61414 37.2711 7.10358C37.2711 5.50627 36.6217 4.05792 35.572 3.00858C34.5227 1.95956 33.074 1.30922 31.477 1.30922C29.8705 1.30922 28.4219 1.95923 27.3728 3.00858C26.3324 4.05792 25.6827 5.50627 25.6827 7.10358C25.6827 7.61447 25.7473 8.09681 25.8592 8.56144C25.9796 9.02541 26.1653 9.47133 26.3881 9.88903L31.477 18.4974Z" fill="#ED2A28"/>
<path d="M31.477 3.31494C32.5172 3.31494 33.4642 3.74249 34.1509 4.42925C34.8383 5.10716 35.2656 6.05413 35.2656 7.10347C35.2656 8.15249 34.838 9.10011 34.1509 9.78721C33.4638 10.4651 32.5172 10.892 31.477 10.892C30.4277 10.892 29.4804 10.4651 28.7933 9.78721C28.1062 9.10011 27.6885 8.15282 27.6885 7.10347C27.6885 6.05413 28.1062 5.10716 28.7933 4.42925C29.4804 3.74216 30.4274 3.31494 31.477 3.31494ZM33.2227 5.34866C32.7767 4.90307 32.1549 4.62449 31.477 4.62449C30.7899 4.62449 30.1675 4.90307 29.7219 5.34866C29.276 5.80377 28.9977 6.41638 28.9977 7.1038C28.9977 7.79089 29.276 8.41302 29.7219 8.85894C30.1672 9.30453 30.7899 9.58311 31.477 9.58311C32.1549 9.58311 32.7767 9.30453 33.2227 8.85894C33.6774 8.41335 33.956 7.79089 33.956 7.1038C33.956 6.41638 33.6774 5.80377 33.2227 5.34866Z" fill="#ED2A28"/>
<path d="M34.5036 31.8969C34.1414 31.8969 33.8543 31.6 33.8543 31.2377C33.8543 30.8755 34.1417 30.5874 34.5036 30.5874H36.8809C37.6983 30.5874 38.4228 31.0612 38.7384 31.8133L41.812 39.2978C41.9419 39.6135 41.9882 39.9295 41.9511 40.2451C41.8861 40.8859 41.4586 41.4798 40.8922 41.7771C40.6045 41.9258 40.2888 42.0002 39.9548 42.0002H2.05012C1.71576 42.0002 1.40011 41.9258 1.11234 41.7771C0.536483 41.4798 0.11878 40.8859 0.0446236 40.2451C0.016733 39.9295 0.0629986 39.6135 0.183749 39.2978L3.26681 31.8133C3.58247 31.0612 4.30664 30.5874 5.124 30.5874H7.48256C7.84481 30.5874 8.13257 30.8758 8.13257 31.2377C8.13257 31.5997 7.84481 31.8969 7.48256 31.8969H5.124C4.83623 31.8969 4.58522 32.0361 4.47398 32.3147L1.40044 39.7989C1.35384 39.9016 1.33547 40.0033 1.34465 40.1057C1.37255 40.3193 1.52119 40.5142 1.7069 40.6165C1.80895 40.6631 1.92019 40.691 2.05045 40.691H39.9554C40.0854 40.691 40.1966 40.6631 40.2898 40.6165C40.485 40.5142 40.6333 40.3196 40.6521 40.1057C40.6612 40.0033 40.6521 39.9016 40.6055 39.7989L37.5319 32.3147C37.4203 32.0357 37.1697 31.8969 36.8819 31.8969H34.5036Z" fill="#768286"/>
<path d="M30.8178 22.9268C30.8178 22.5646 31.1148 22.2673 31.477 22.2673C31.8393 22.2673 32.127 22.5646 32.127 22.9268V38.6292C32.127 38.9915 31.8389 39.2884 31.477 39.2884H10.5279C10.1656 39.2884 9.87787 38.9915 9.87787 38.6292V9.92682C9.87787 9.36966 10.1194 8.86796 10.5095 8.50604C10.8809 8.15297 11.401 7.93018 11.9674 7.93018H22.3023C22.6646 7.93018 22.9523 8.22713 22.9523 8.58971C22.9523 8.95196 22.6642 9.24891 22.3023 9.24891H11.9674C11.7351 9.24891 11.5401 9.32339 11.3918 9.46252C11.2619 9.58294 11.1874 9.75029 11.1874 9.92682V37.9789H30.8181L30.8178 22.9268Z" fill="#768286"/>
</g>
<defs>
<clipPath id="clip0_338_3388">
<rect width="42" height="42" fill="white"/>
</clipPath>
</defs>
</svg>
