<svg width="68" height="68" viewBox="0 0 68 68" fill="none" xmlns="http://www.w3.org/2000/svg">
<g clip-path="url(#clip0_338_3424)">
<path d="M64.7768 27.5196L56.9806 19.6214V6.9632C56.9779 5.11727 56.2434 3.34772 54.9382 2.04245C53.6329 0.737185 51.8633 0.00269807 50.0174 0L17.9826 0C16.1367 0.00269807 14.3671 0.737185 13.0619 2.04245C11.7566 3.34772 11.0221 5.11727 11.0194 6.9632V19.6214L3.22321 27.5196C1.93429 28.8199 1.213 30.5779 1.21721 32.4088V62.6076C1.21901 64.0372 1.78772 65.4077 2.7986 66.4186C3.80948 67.4295 5.18001 67.9982 6.60961 68H61.3904C62.82 67.9982 64.1906 67.4295 65.2014 66.4186C66.2123 65.4077 66.781 64.0372 66.7828 62.6076V32.4088C66.787 30.5779 66.0657 28.8199 64.7768 27.5196ZM62.6722 27.3258L56.9806 33.1058V21.5594L62.6722 27.3258ZM17.9826 1.36H50.0174C51.5032 1.3609 52.9279 1.95153 53.9785 3.00213C55.0291 4.05274 55.6197 5.47742 55.6206 6.9632V34.4692L45.1418 45.084L42.2858 42.2008C41.2005 41.1071 39.9094 40.2391 38.487 39.6467C37.0647 39.0543 35.5391 38.7494 33.9983 38.7494C32.4575 38.7494 30.932 39.0543 29.5096 39.6467C28.0872 40.2391 26.7961 41.1071 25.7108 42.2008L22.8548 45.084L12.3794 34.4726V6.9632C12.3803 5.47742 12.9709 4.05274 14.0215 3.00213C15.0722 1.95153 16.4968 1.3609 17.9826 1.36ZM11.0194 33.0956L5.32441 27.3156L11.0194 21.5356V33.0956ZM2.57721 32.4156C2.57403 30.9423 3.15475 29.5278 4.19221 28.4818L4.36901 28.3016L21.896 46.0496L3.25721 64.8414C2.81352 64.181 2.57678 63.4032 2.57721 62.6076V32.4156ZM6.60961 66.64C5.73696 66.6388 4.88842 66.3535 4.19221 65.8274L26.6764 43.1596C27.6353 42.1934 28.7759 41.4265 30.0326 40.9032C31.2892 40.3799 32.6371 40.1105 33.9983 40.1105C35.3596 40.1105 36.7074 40.3799 37.964 40.9032C39.2207 41.4265 40.3613 42.1934 41.3202 43.1596L63.8044 65.8308C63.1092 66.3559 62.2617 66.64 61.3904 66.64H6.60961ZM65.4296 62.6076C65.4297 63.4042 65.193 64.183 64.7496 64.8448L46.1074 46.0496L63.6344 28.2948L63.8146 28.475C64.8521 29.521 65.4328 30.9355 65.4296 32.4088V62.6076Z" fill="white" stroke="white" stroke-width="0.6"/>
<path d="M34.221 31.7695H39.78C39.9604 31.7695 40.1333 31.6978 40.2609 31.5703C40.3884 31.4428 40.46 31.2698 40.46 31.0895C40.46 30.9091 40.3884 30.7362 40.2609 30.6087C40.1333 30.4811 39.9604 30.4095 39.78 30.4095H34.221C28.6144 30.4095 23.7728 25.7787 23.647 20.2979C23.614 18.8976 23.8654 17.5051 24.3861 16.2048C24.9069 14.9045 25.686 13.7234 26.6765 12.7329C27.6669 11.7425 28.848 10.9633 30.1483 10.4426C31.4487 9.92188 32.8411 9.67043 34.2414 9.70348C39.7222 9.82928 44.353 14.6709 44.353 20.2775V21.8959C44.353 22.5271 44.1023 23.1325 43.6559 23.5788C43.2096 24.0251 42.6042 24.2759 41.973 24.2759C41.3418 24.2759 40.7364 24.0251 40.2901 23.5788C39.8438 23.1325 39.593 22.5271 39.593 21.8959V20.0599C39.5985 18.7242 39.1269 17.4305 38.2633 16.4116C37.3996 15.3928 36.2006 14.7157 34.8821 14.5023C33.5636 14.289 32.2122 14.5533 31.0713 15.2478C29.9304 15.9423 29.0749 17.0213 28.6588 18.2905C28.2428 19.5597 28.2935 20.9358 28.8019 22.1709C29.3103 23.4061 30.2429 24.4191 31.4318 25.0277C32.6208 25.6363 33.988 25.8004 35.2872 25.4906C36.5864 25.1807 37.7323 24.4172 38.5186 23.3375C38.8476 24.1412 39.446 24.8054 40.2112 25.2161C40.9765 25.6268 41.8607 25.7584 42.7124 25.5883C43.564 25.4182 44.3299 24.957 44.8786 24.2839C45.4274 23.6108 45.7248 22.7677 45.7198 21.8993V20.2775C45.713 13.9399 40.46 8.49988 34.272 8.34348C32.6881 8.30674 31.1131 8.59162 29.6424 9.18092C28.1717 9.77021 26.8358 10.6517 25.7155 11.772C24.5952 12.8923 23.7138 14.2282 23.1245 15.6989C22.5352 17.1696 22.2503 18.7445 22.287 20.3285C22.44 26.5199 27.88 31.7695 34.221 31.7695ZM34 24.2895C33.1643 24.2895 32.3473 24.0417 31.6524 23.5775C30.9575 23.1132 30.4158 22.4534 30.0959 21.6814C29.7759 20.9093 29.692 20.0598 29.8548 19.24C30.0176 18.4203 30.4197 17.6673 31.0105 17.0761C31.6012 16.4849 32.3539 16.0822 33.1735 15.9187C33.993 15.7553 34.8427 15.8385 35.615 16.1578C36.3873 16.4772 37.0475 17.0183 37.5123 17.7129C37.9771 18.4074 38.2256 19.2242 38.2262 20.0599C38.2235 21.1793 37.7772 22.252 36.985 23.0429C36.1928 23.8338 35.1194 24.2784 34 24.2793V24.2895Z" fill="#ED2A28" stroke="#ED2A28" stroke-width="0.6"/>
</g>
<defs>
<clipPath id="clip0_338_3424">
<rect width="68" height="68" fill="white"/>
</clipPath>
</defs>
</svg>
