<svg width="68" height="68" viewBox="0 0 68 68" fill="none" xmlns="http://www.w3.org/2000/svg">
<path d="M58.2885 1.04639H9.71142C5.53936 1.04639 2.14459 4.44116 2.14459 8.61217V47.9936C2.14459 52.1656 5.53936 55.5594 9.71038 55.5594H58.2875C62.4595 55.5594 65.8533 52.1656 65.8533 47.9936V8.61217C65.8543 4.44116 62.4606 1.04639 58.2885 1.04639ZM62.7159 47.9936C62.7159 50.4353 60.7303 52.4209 58.2885 52.4209H9.71142C7.2697 52.4209 5.2841 50.4353 5.2841 47.9936V8.61217C5.28305 6.17045 7.2697 4.18485 9.71142 4.18485H58.2885C60.7303 4.18485 62.7159 6.17045 62.7159 8.61217V47.9936Z" fill="white"/>
<path d="M45.672 27.8414C45.6584 27.7985 45.65 27.7546 45.6322 27.7117C45.6186 27.6782 45.5977 27.6468 45.5809 27.6134C45.5516 27.5527 45.5224 27.492 45.4857 27.4355C45.4826 27.4324 45.4816 27.4282 45.4795 27.425C45.4575 27.3916 45.4282 27.3654 45.4041 27.3351C45.3665 27.288 45.332 27.2388 45.288 27.1959C45.2409 27.1489 45.1886 27.1091 45.1363 27.0694C45.1091 27.0474 45.0861 27.0233 45.0568 27.0034L45.0369 26.9898C45.0359 26.9888 45.0348 26.9888 45.0328 26.9878L28.0307 15.5094C27.9449 15.4508 27.8518 15.4016 27.7545 15.3608C27.7064 15.3399 27.6551 15.3294 27.6059 15.3148C27.5578 15.3001 27.5107 15.2813 27.4605 15.2708C27.2555 15.23 27.0462 15.23 26.8454 15.2708C26.7931 15.2813 26.7439 15.3001 26.6937 15.3158C26.6466 15.3305 26.5995 15.3399 26.5545 15.3598C26.5033 15.3807 26.4562 15.41 26.407 15.4361C26.3662 15.4581 26.3233 15.4769 26.2846 15.5031C26.2365 15.5345 26.1936 15.5742 26.1497 15.6119C26.1152 15.6401 26.0796 15.6642 26.0472 15.6956C25.9007 15.841 25.7825 16.0146 25.7019 16.2082C25.6841 16.25 25.6758 16.294 25.6611 16.3369C25.6433 16.3923 25.6224 16.4457 25.612 16.5022C25.591 16.6047 25.5806 16.7082 25.5806 16.8108V39.7958C25.5806 39.8994 25.591 40.0019 25.612 40.1044C25.6235 40.1641 25.6454 40.2185 25.6632 40.275C25.6768 40.3158 25.6852 40.3576 25.7009 40.3984C25.7877 40.6055 25.9206 40.7886 26.0827 40.9414C26.111 40.9665 26.1413 40.9895 26.1706 41.0135C26.2334 41.0638 26.2993 41.1087 26.3683 41.1495C26.4028 41.1694 26.4363 41.1882 26.4719 41.206C26.5483 41.2426 26.6278 41.2719 26.7104 41.295C26.7408 41.3044 26.769 41.3169 26.7993 41.3232C26.9123 41.3483 27.0284 41.365 27.1488 41.365C27.1498 41.365 27.1519 41.364 27.1529 41.364C27.291 41.364 27.4239 41.341 27.5515 41.3054C27.584 41.297 27.6164 41.2866 27.6478 41.2761C27.7817 41.2311 27.9104 41.1736 28.0265 41.0962L45.0537 29.6042C45.0872 29.5812 45.1154 29.5519 45.1468 29.5268C45.1813 29.4996 45.2158 29.4724 45.2493 29.441C45.3215 29.373 45.3864 29.2977 45.4439 29.2192C45.4544 29.2046 45.468 29.1951 45.4774 29.1805C45.4795 29.1774 45.4805 29.1732 45.4836 29.17C45.5203 29.1135 45.5496 29.0529 45.5788 28.9922C45.5956 28.9587 45.6165 28.9273 45.6301 28.8938C45.6479 28.852 45.6563 28.807 45.6699 28.7641C45.7169 28.6124 45.7462 28.4576 45.7462 28.3028C45.7462 28.1479 45.719 27.9931 45.672 27.8414ZM28.7201 19.762L41.3754 28.3038L28.7201 36.8446V19.762Z" fill="#ED2A28"/>
<path d="M64.2851 60.2189H45.7483V58.1893C45.7483 57.3231 45.0453 56.6201 44.1791 56.6201C43.3128 56.6201 42.6098 57.3231 42.6098 58.1893V60.2189H3.71382C2.84656 60.2189 2.14459 60.9219 2.14459 61.7881C2.14459 62.6543 2.84656 63.3573 3.71382 63.3573H42.6098V65.3848C42.6098 66.251 43.3128 66.954 44.1791 66.954C45.0453 66.954 45.7483 66.251 45.7483 65.3848V63.3573H64.2851C65.1513 63.3573 65.8543 62.6543 65.8543 61.7881C65.8543 60.9219 65.1513 60.2189 64.2851 60.2189Z" fill="white"/>
</svg>
